<svg width="127" height="39" viewBox="0 0 127 39" fill="none" xmlns="http://www.w3.org/2000/svg">
<path d="M124.494 2.82144C124.395 1.44423 123.199 0.407539 121.822 0.505917L99.3791 2.10904C98.0019 2.20741 96.9652 3.4036 97.0635 4.78081C97.1619 6.15801 98.3581 7.19471 99.7353 7.09633L119.684 5.67133L121.109 25.6205C121.208 26.9977 122.404 28.0344 123.781 27.936C125.158 27.8376 126.195 26.6415 126.097 25.2643L124.494 2.82144ZM8.51305 0.552759C7.16172 0.269414 5.83656 1.13518 5.55321 2.48651L0.935815 24.5076C0.652467 25.859 1.51824 27.1841 2.86956 27.4675C4.22089 27.7508 5.54605 26.885 5.8294 25.5337L9.93375 5.95939L29.5081 10.0637C30.8594 10.3471 32.1846 9.48132 32.4679 8.12999C32.7513 6.77867 31.8855 5.4535 30.5342 5.17016L8.51305 0.552759ZM120.111 1.36224C104.091 19.8467 89.2537 28.8631 76.1457 32.2185C63.0664 35.5664 51.4376 33.3479 41.67 28.8536C31.8652 24.3422 23.9587 17.5429 18.4778 11.8177C15.745 8.96306 13.6349 6.39622 12.213 4.55019C11.5025 3.62773 10.965 2.88686 10.6087 2.38201C10.4306 2.12964 10.2979 1.9364 10.2116 1.80912C10.1684 1.74548 10.1368 1.69835 10.117 1.66857C10.1071 1.65368 10.1001 1.64314 10.0961 1.63704C10.0941 1.63399 10.0928 1.63205 10.0923 1.63123C10.092 1.63083 10.0922 1.63107 10.0921 1.63086C10.0924 1.63138 10.0929 1.63218 8 2.99955C5.90708 4.36692 5.90798 4.36829 5.90907 4.36995C5.90969 4.37089 5.91096 4.37284 5.91219 4.37471C5.91464 4.37845 5.91784 4.38332 5.9218 4.38932C5.92971 4.40132 5.94062 4.4178 5.95451 4.43868C5.98229 4.48043 6.02201 4.53972 6.07355 4.61571C6.17662 4.76766 6.32697 4.98641 6.52361 5.26505C6.91683 5.82222 7.49557 6.61944 8.25184 7.60129C9.76353 9.56388 11.9894 12.2705 14.866 15.2753C20.6038 21.2689 29.0098 28.5322 39.58 33.3958C50.1874 38.2766 62.9961 40.7456 77.3856 37.0623C91.7463 33.3863 107.409 23.6527 123.889 4.63688L120.111 1.36224Z" fill="#D38AFF"/>
</svg>
