<svg width="151" height="38" viewBox="0 0 151 38" fill="none" xmlns="http://www.w3.org/2000/svg">
<path d="M149.768 20.7678C150.744 19.7915 150.744 18.2085 149.768 17.2322L133.858 1.32233C132.882 0.34602 131.299 0.34602 130.322 1.32233C129.346 2.29864 129.346 3.88155 130.322 4.85786L144.464 19L130.322 33.1421C129.346 34.1184 129.346 35.7014 130.322 36.6777C131.299 37.654 132.882 37.654 133.858 36.6777L149.768 20.7678ZM1.23222 17.2322C0.25592 18.2085 0.25592 19.7915 1.23222 20.7678L17.1421 36.6777C18.1184 37.654 19.7014 37.654 20.6777 36.6777C21.654 35.7014 21.654 34.1184 20.6777 33.1421L6.53554 19L20.6777 4.85786C21.654 3.88155 21.654 2.29864 20.6777 1.32233C19.7014 0.34602 18.1184 0.34602 17.1421 1.32233L1.23222 17.2322ZM148 16.5L3 16.5V21.5L148 21.5V16.5Z" fill="#D38AFF"/>
</svg>
