<svg width="67" height="67" viewBox="0 0 67 67" fill="none" xmlns="http://www.w3.org/2000/svg">
<path d="M64 66.5005C65.3807 66.5005 66.5 65.3812 66.5 64.0005V41.5005C66.5 40.1198 65.3807 39.0005 64 39.0005C62.6193 39.0005 61.5 40.1198 61.5 41.5005V61.5005H41.5C40.1193 61.5005 39 62.6198 39 64.0005C39 65.3812 40.1193 66.5005 41.5 66.5005H64ZM3 0.500487C1.61929 0.500487 0.499999 1.61978 0.499999 3.00049L0.5 25.5005C0.5 26.8812 1.61929 28.0005 3 28.0005C4.38071 28.0005 5.5 26.8812 5.5 25.5005V5.50049H25.5C26.8807 5.50049 28 4.3812 28 3.00049C28 1.61977 26.8807 0.500488 25.5 0.500488L3 0.500487ZM65.7678 62.2327L4.76777 1.23272L1.23223 4.76826L62.2322 65.7683L65.7678 62.2327Z" fill="#D38AFF"/>
</svg>
