<svg width="158" height="149" viewBox="0 0 158 149" fill="none" xmlns="http://www.w3.org/2000/svg">
<path d="M106.809 14.5C98.2248 11.6482 87.309 27 87.309 27C87.309 27 83.967 -0.0528932 71.809 0C62.9338 0.0386115 54.309 14.5 54.309 14.5C54.309 14.5 43.3765 1.75555 34.809 3.5C25.1945 5.45763 21.809 25 21.809 25C21.809 25 8.58737 18.6201 2.30902 23C-7.21649 29.6452 15.809 49.5 15.809 49.5C15.809 49.5 -0.548931 61.1364 3.30902 69.5C6.6713 76.789 22.809 76 22.809 76C22.809 76 16.3879 93.4069 22.809 100.5C28.085 106.328 42.309 105.5 42.309 105.5C42.309 105.5 35.9136 118.732 40.309 125C46.5109 133.843 67.309 119 67.309 119C67.309 119 72.8183 149.147 86.309 148C96.3529 147.146 104.309 129.5 104.309 129.5C104.309 129.5 118.231 147.923 126.809 142.5C133.454 138.299 131.809 123 131.809 123C131.809 123 148.987 129.653 155.309 123C163.778 114.087 138.309 96.5 138.309 96.5C138.309 96.5 154.137 86.9727 151.809 78.5C149.539 70.2413 131.809 69.5 131.809 69.5C131.809 69.5 142.511 47.7897 133.809 40.5C127.506 35.2204 112.809 39 112.809 39C112.809 39 116.157 17.6056 106.809 14.5Z" fill="#A0FF91"/>
</svg>
