<svg width="147" height="121" viewBox="0 0 147 121" fill="none" xmlns="http://www.w3.org/2000/svg">
<path d="M105.237 36.0977C105.237 36.0977 76.9149 15.2954 57.8895 8.04082C47.1436 3.94331 43.2906 -1.20775 32.1223 1.5369C25.1634 3.24706 21.7663 6.31951 16.4883 11.093L16.3345 11.2321C8.99259 17.8716 5.01488 22.8598 2.40301 32.4079C0.258842 40.2462 0.223143 45.3323 2.19611 53.2155C4.94574 64.2018 11.4284 68.3765 18.6835 77.0727C26.1909 86.0712 30.8881 90.82 39.9799 98.2142C47.9412 104.689 52.4224 108.634 61.7242 112.968C71.1513 117.361 76.9849 119.509 87.3643 120.168C100.107 120.977 119.435 113.807 119.435 113.807C119.435 113.807 130.561 108.148 135.888 102.436C140.838 97.1295 144.332 93.7439 145.61 86.601C146.655 80.755 145.761 77.0821 143.693 71.5153C140.829 63.8082 136.279 60.9604 130.52 55.0922C121.87 46.2781 115.392 43.125 105.237 36.0977Z" fill="#FF72A5"/>
</svg>
