<svg width="195" height="168" viewBox="0 0 195 168" fill="none" xmlns="http://www.w3.org/2000/svg">
<path d="M162.208 13.7711L132.239 27.4953L117.23 0.458693L99.1891 23.9276L85.3541 8.99972L76.4898 30.0099L54.4791 19.3432L51.1262 43.5353L31.5396 39.9837L32.9216 64.46L10.7054 70.4128L19.3318 92.948L0.634971 106.24L26.1905 118.545L19.7064 136.847L45.4075 136.172L45.9276 167.091L78.8199 146.889L98.9081 165.836L115.43 138.633L142.46 144.849L142.666 128.229L171.498 133.444L165.277 102.5L194.116 86.4905L166.629 74.7031L182.34 42.5408L158.217 43.3105L162.208 13.7711Z" fill="#A0FF91"/>
</svg>
