<svg width="133" height="93" viewBox="0 0 133 93" fill="none" xmlns="http://www.w3.org/2000/svg">
<path d="M69.9195 -17.9157C44.8116 -17.0715 14.4195 -12.9156 5.91945 -11.9156C-2.58058 -10.9156 0.419434 -0.915649 0.9195 4.58432C1.41957 10.0843 6.03782 69.945 36.9195 85.5843C44.0807 89.2109 48.3943 91.907 56.4195 92.0843C68.2134 92.345 74.0046 85.9764 83.9195 79.5843C98.3091 70.3074 104.97 62.5171 114.919 48.5843C122.282 38.274 127.969 32.5145 130.42 20.0843C132.006 12.0382 133.511 6.68036 130.42 -0.91568C128.52 -5.58308 126.731 -8.12001 122.919 -11.4157C116.425 -17.0303 110.369 -16.3945 101.919 -17.9157C89.6205 -20.1301 82.4092 -18.3356 69.9195 -17.9157Z" fill="#A0FF91"/>
</svg>
