<svg width="138" height="127" viewBox="0 0 138 127" fill="none" xmlns="http://www.w3.org/2000/svg">
<path d="M59.7332 23.737C59.7332 23.737 30.0478 42.543 16.3649 57.6219C8.63654 66.1388 2.43625 67.8522 0.926818 79.2533C-0.0136951 86.3572 1.6112 90.6398 4.13571 97.2933L4.20926 97.4872C7.72042 106.742 10.9183 112.263 18.8603 118.172C25.3802 123.022 30.1043 124.907 38.1648 125.939C49.3983 127.378 55.6465 122.86 66.3871 119.268C77.5012 115.552 83.6341 112.906 93.8308 107.13C102.76 102.072 108.065 99.3344 115.488 92.2487C123.012 85.0676 127.136 80.4163 131.528 70.9889C136.921 59.4151 137.278 38.803 137.278 38.803C137.278 38.803 136.058 26.3804 132.678 19.3394C129.537 12.7979 127.656 8.31068 121.468 4.52052C116.404 1.41859 112.658 0.913721 106.72 0.813703C98.4994 0.675233 94.1903 3.87678 86.6284 7.10419C75.2701 11.9518 69.9753 16.8371 59.7332 23.737Z" fill="#FFE177"/>
</svg>
