<svg width="152" height="93" viewBox="0 0 152 93" fill="none" xmlns="http://www.w3.org/2000/svg">
<path d="M85.3562 2.50303C85.3562 2.50303 50.3032 4.98827 31.107 11.7784C20.2647 15.6135 13.9932 14.1828 7.25919 23.5057C3.06331 29.3147 2.46375 33.8558 1.53226 40.9109L1.50511 41.1165C0.208974 50.9301 0.40741 57.307 4.59916 66.2745C8.0403 73.6363 11.3063 77.5355 17.9141 82.2656C27.123 88.8577 34.7663 87.8417 45.9259 89.7713C57.4735 91.768 64.128 92.3456 75.8442 92.0939C86.1038 91.8734 92.0732 91.9784 101.968 89.2587C111.997 86.5023 117.833 84.362 126.17 78.1437C136.404 70.5096 146.491 52.5306 146.491 52.5306C146.491 52.5306 151.306 41.0142 151.668 33.2121C152.003 25.9636 152.474 21.1208 148.823 14.8502C145.835 9.7182 142.776 7.49768 137.595 4.59465C130.422 0.575492 125.11 1.35159 116.922 0.608341C104.623 -0.508035 97.6452 1.28322 85.3562 2.50303Z" fill="#FF72A5"/>
</svg>
