<svg width="104" height="73" viewBox="0 0 104 73" fill="none" xmlns="http://www.w3.org/2000/svg">
<path d="M53.1485 63.8079L47.8969 72.4502L75.6431 59.946C75.6431 59.946 80.5594 58.6602 83.5345 57.3741C88.8814 55.0626 92.1939 53.6224 96.0455 49.2543C99.859 44.9294 101.299 41.6168 102.505 35.9796C103.652 30.6177 103.601 27.2517 102.233 21.9418C100.864 16.632 101.439 15.159 92.6342 7.04702C92.6342 7.04702 82.9971 0.39728 69.2171 0.484432C55.4371 0.571585 35.0686 3.14521 20.3056 8.84549C15.1347 10.8421 12.1578 12.4558 8.3325 16.4652C4.32518 20.6656 2.06921 23.7293 1.10403 29.4522C-0.55074 39.264 -0.0322089 42.8858 3.47751 50.0606C5.93817 55.0908 7.81571 57.626 12.4475 60.7762C18.5992 64.9602 23.6007 64.3705 31.0073 65.0848C39.6284 65.9162 53.1485 63.8079 53.1485 63.8079Z" fill="#FFE177"/>
</svg>
