<svg width="199" height="141" viewBox="0 0 199 141" fill="none" xmlns="http://www.w3.org/2000/svg">
<path d="M94.5 124L104 141L51.5 115C51.5 115 42.1331 112.182 36.5 109.5C26.3759 104.678 20.1046 101.675 13 92.9997C5.96583 84.4099 3.42709 77.9337 1.50004 66.9997C-0.332931 56.5996 -0.00183415 50.1245 3.00004 39.9997C6.0019 29.8749 5 26.9998 22.5 11.9998C22.5 11.9998 41.5 -0.127828 68 0.999812C94.5 2.12745 133.5 8.49982 161.5 20.4997C171.307 24.7027 176.921 28.016 184 35.9997C191.416 44.3633 195.542 50.4174 197 61.4997C199.5 80.4998 198.25 87.4348 191 101C185.917 110.51 182.129 115.259 173 121C160.876 128.624 151.296 127.141 137 128C120.359 128.999 94.5 124 94.5 124Z" fill="#A0FF91"/>
</svg>
