<svg width="133" height="112" viewBox="0 0 133 112" fill="none" xmlns="http://www.w3.org/2000/svg">
<path d="M69.9195 1.08432C44.8116 1.92852 14.4195 6.08435 5.91945 7.08435C-2.58058 8.08435 0.419434 18.0844 0.9195 23.5843C1.41957 29.0843 6.03782 88.945 36.9195 104.584C44.0807 108.211 48.3943 110.907 56.4195 111.084C68.2134 111.345 74.0046 104.976 83.9195 98.5843C98.3091 89.3074 104.97 81.5171 114.919 67.5843C122.282 57.274 127.969 51.5145 130.42 39.0843C132.006 31.0382 133.511 25.6804 130.42 18.0843C128.52 13.4169 126.731 10.88 122.919 7.58432C116.425 1.96966 110.369 2.60555 101.919 1.08432C89.6205 -1.13009 82.4092 0.664378 69.9195 1.08432Z" fill="#A0FF91"/>
</svg>
