<svg width="169" height="111" viewBox="0 0 169 111" fill="none" xmlns="http://www.w3.org/2000/svg">
<path d="M86.106 6.18636L49.606 0.18636C49.606 0.18636 36.4494 -0.779471 28.606 1.68636C18.9449 4.72364 13.0287 7.97151 7.106 16.1864C1.28656 24.258 -0.478593 30.7528 0.106005 40.6864C0.813994 52.7166 6.07818 59.1985 14.106 68.1864C22.9854 78.1276 30.948 80.7224 43.106 86.1864C53.752 90.9708 71.606 95.1864 71.606 95.1864L52.106 110.686C52.106 110.686 81.0742 101.75 100.106 102.186C111.342 102.444 117.427 107.347 128.606 106.186C137.759 105.236 143.555 104.446 151.106 99.1864C157.938 94.4281 161.255 90.3078 164.606 82.6864C169.636 71.2466 168.937 62.4086 164.606 50.6864C158.66 34.5933 146.377 30.4126 131.606 21.6864C115.444 12.1386 86.106 6.18636 86.106 6.18636Z" fill="#61CAFF"/>
</svg>
