<svg width="161" height="150" viewBox="0 0 161 150" fill="none" xmlns="http://www.w3.org/2000/svg">
<path d="M105.863 4.11889L62.863 27.1189L26.363 46.6189C26.363 46.6189 6.57321 60.2644 3.36305 65.6189C3.36305 65.6189 -2.05524 74 0.863052 87.1189C3.78134 100.238 11.2384 107.546 21.8631 117.119C31.2924 125.614 37.8024 129.666 49.8631 133.619C63.8101 138.19 72.9554 138.919 87.363 136.119C98.1123 134.03 103.949 131.212 113.363 125.619C120.313 121.49 129.863 113.119 129.863 113.119L122.863 149.619C122.863 149.619 137.34 140.751 143.363 132.119C148.779 124.358 150.792 118.951 152.363 109.619C154.019 99.7817 150.863 84.1189 150.863 84.1189C150.863 84.1189 162.31 59.2266 160.863 42.6189C159.962 32.2779 159.197 25.7042 153.363 17.1189C147.741 8.84612 142.855 4.27198 133.363 1.1189C122.189 -2.59273 105.863 4.11889 105.863 4.11889Z" fill="#61CAFF"/>
</svg>
