<svg width="123" height="142" viewBox="0 0 123 142" fill="none" xmlns="http://www.w3.org/2000/svg">
<path d="M71.0091 9.23674C65.8557 11.6159 61.5091 20.2367 61.5091 20.2367C61.5091 20.2367 58.9266 9.794 54.0091 5.73674C50.7058 3.01136 48.1751 2.22827 44.0091 1.23674C38.8803 0.016072 35.3753 -0.791802 30.5091 1.23674C24.4855 3.74774 20.0091 14.2367 20.0091 14.2367C20.0091 14.2367 15.5848 2.99967 9.50907 2.73674C5.0563 2.54405 2.67304 5.09769 -0.490929 8.23674C-6.61047 14.3081 -5.49093 29.7367 -5.49093 29.7367C-5.49093 29.7367 -12.8888 22.316 -18.9909 20.2367C-23.278 18.776 -26.0294 17.9573 -30.4909 18.7367C-35.0509 19.5334 -37.6538 21.0287 -40.9909 24.2367C-45.853 28.9107 -47.6462 33.4942 -47.4909 40.2367C-47.344 46.6193 -40.9909 55.2367 -40.9909 55.2367C-40.9909 55.2367 -54.4799 52.4966 -60.4909 57.2367C-63.6814 59.7527 -65.3519 61.8365 -66.4909 65.7367C-67.8692 70.4562 -67.7463 74.1648 -64.9909 78.2367C-61.9564 82.7213 -52.4909 84.2367 -52.4909 84.2367C-52.4909 84.2367 -59.4909 86.2367 -62.9909 89.2367C-66.4524 92.2037 -66.9856 94.2944 -67.9583 98.1088L-67.9909 98.2367L-68.0211 98.355C-68.9709 102.077 -69.6524 104.748 -67.9909 108.237C-65.2295 114.036 -58.9096 113.503 -52.4909 113.737C-45.3319 113.998 -34.9909 108.237 -34.9909 108.237C-34.9909 108.237 -38.7801 117.604 -36.9909 123.237C-35.6783 127.369 -34.2686 130.109 -30.4909 132.237C-26.0674 134.728 -22.1657 134.217 -17.4909 132.237C-11.5931 129.739 -7.49093 119.237 -7.49093 119.237C-7.49093 119.237 -3.68774 130.959 2.00907 135.737C5.55569 138.711 7.93925 140.499 12.5091 141.237C17.8407 142.097 21.6502 141.425 26.0091 138.237C30.5246 134.933 33.0091 125.737 33.0091 125.737C33.0091 125.737 37.5065 138.248 44.0091 138.237C47.6777 138.23 49.6145 136.491 52.5091 134.237C60.2121 128.238 59.5091 110.237 59.5091 110.237C59.5091 110.237 66.3781 117.121 72.0091 119.237C78.4171 121.644 83.6321 123.747 89.5091 120.237C92.4749 118.465 93.545 116.579 95.5091 113.737C99.1608 108.453 101.542 104.637 101.009 98.2367C100.494 92.0557 93.5091 84.2367 93.5091 84.2367C101.32 83.651 106.509 86.2367 113.509 83.2367C120.509 80.2367 120.96 78.6295 121.509 74.2368C122.509 66.2368 120.247 64.8487 116.509 60.7367C113.511 57.4389 106.509 55.2367 106.509 55.2367C106.509 55.2367 118.427 51.9948 121.009 45.7367C123.18 40.4742 123.222 35.5517 119.509 31.2367C116.044 27.2106 111.799 27.7195 106.509 27.2367C98.9578 26.5477 87.5091 31.2367 87.5091 31.2367C87.5091 31.2367 91.3211 22.1581 89.5091 16.7367C88.1844 12.7735 86.7725 10.0531 83.0091 8.23674C78.774 6.19278 75.2786 7.26567 71.0091 9.23674Z" fill="#A0FF91"/>
</svg>
