<svg width="192" height="142" viewBox="0 0 192 142" fill="none" xmlns="http://www.w3.org/2000/svg">
<path d="M140.009 9.23674C134.856 11.6159 130.509 20.2367 130.509 20.2367C130.509 20.2367 127.927 9.794 123.009 5.73674C119.706 3.01136 117.175 2.22827 113.009 1.23674C107.88 0.016072 104.375 -0.791802 99.5091 1.23674C93.4855 3.74774 89.0091 14.2367 89.0091 14.2367C89.0091 14.2367 84.5848 2.99967 78.5091 2.73674C74.0563 2.54405 71.673 5.09769 68.5091 8.23674C62.3895 14.3081 63.5091 29.7367 63.5091 29.7367C63.5091 29.7367 56.1112 22.316 50.0091 20.2367C45.722 18.776 42.9706 17.9573 38.5091 18.7367C33.9491 19.5334 31.3462 21.0287 28.0091 24.2367C23.147 28.9107 21.3538 33.4942 21.5091 40.2367C21.656 46.6193 28.0091 55.2367 28.0091 55.2367C28.0091 55.2367 14.5201 52.4966 8.50907 57.2367C5.31858 59.7527 3.6481 61.8365 2.50907 65.7367C1.13079 70.4562 1.25372 74.1648 4.00907 78.2367C7.04363 82.7213 16.5091 84.2367 16.5091 84.2367C16.5091 84.2367 9.50907 86.2367 6.00907 89.2367C2.54758 92.2037 2.01443 94.2944 1.0417 98.1088L1.00907 98.2367L0.978889 98.355C0.0290921 102.077 -0.652383 104.748 1.00907 108.237C3.77049 114.036 10.0904 113.503 16.5091 113.737C23.6681 113.998 34.0091 108.237 34.0091 108.237C34.0091 108.237 30.2199 117.604 32.0091 123.237C33.3217 127.369 34.7314 130.109 38.5091 132.237C42.9326 134.728 46.8343 134.217 51.5091 132.237C57.4069 129.739 61.5091 119.237 61.5091 119.237C61.5091 119.237 65.3123 130.959 71.0091 135.737C74.5557 138.711 76.9392 140.499 81.5091 141.237C86.8407 142.097 90.6502 141.425 95.0091 138.237C99.5246 134.933 102.009 125.737 102.009 125.737C102.009 125.737 106.507 138.248 113.009 138.237C116.678 138.23 118.615 136.491 121.509 134.237C129.212 128.238 128.509 110.237 128.509 110.237C128.509 110.237 135.378 117.121 141.009 119.237C147.417 121.644 152.632 123.747 158.509 120.237C161.475 118.465 162.545 116.579 164.509 113.737C168.161 108.453 170.542 104.637 170.009 98.2367C169.494 92.0557 162.509 84.2367 162.509 84.2367C170.32 83.651 175.509 86.2367 182.509 83.2367C189.509 80.2367 189.96 78.6295 190.509 74.2368C191.509 66.2368 189.247 64.8487 185.509 60.7367C182.511 57.4389 175.509 55.2367 175.509 55.2367C175.509 55.2367 187.427 51.9948 190.009 45.7367C192.18 40.4742 192.222 35.5517 188.509 31.2367C185.044 27.2106 180.799 27.7195 175.509 27.2367C167.958 26.5477 156.509 31.2367 156.509 31.2367C156.509 31.2367 160.321 22.1581 158.509 16.7367C157.184 12.7735 155.772 10.0531 152.009 8.23674C147.774 6.19278 144.279 7.26567 140.009 9.23674Z" fill="#61CAFF"/>
</svg>
