<svg width="192" height="123" viewBox="0 0 192 123" fill="none" xmlns="http://www.w3.org/2000/svg">
<path d="M46.6718 97.8245L57.6718 122.825C57.6718 122.825 41.3183 118.36 32.6718 113.325C23.4841 107.973 20.0692 103.668 13.1718 94.3245C6.08617 84.7264 4.29977 77.5634 2.17179 65.8245C0.151731 54.6809 -1.486 47.5428 2.17179 36.8245C4.77892 29.185 7.58821 25.154 13.1718 19.3245C20.561 11.6099 26.6765 9.09408 36.6718 5.32451C47.2448 1.33705 65.1718 0.324509 65.1718 0.324509C65.1718 0.324509 88.9589 -0.405637 104.172 0.324509C117.292 0.954196 124.821 0.605836 137.672 3.32451C149.331 5.79118 156.509 6.60052 166.672 12.8245C176.445 18.81 182.81 22.9459 187.672 33.3245C192.09 42.7561 191.918 49.4844 190.672 59.8245C189.667 68.1627 188.881 73.3707 184.172 80.3245C179.264 87.571 174.31 90.0526 166.672 94.3245C151.764 102.662 140.665 100.598 123.672 102.325C102.886 104.436 79.3491 104.082 70.1718 102.325L46.6718 97.8245Z" fill="#FFE177"/>
</svg>
