<svg width="174" height="129" viewBox="0 0 174 129" fill="none" xmlns="http://www.w3.org/2000/svg">
<path d="M127.214 8.41602C122.532 10.5837 118.583 18.4386 118.583 18.4386C118.583 18.4386 116.236 8.92376 111.768 5.22701C108.767 2.74379 106.467 2.03028 102.682 1.12685C98.0217 0.014644 94.837 -0.721447 90.4156 1.12685C84.9425 3.41474 80.8751 12.9717 80.8751 12.9717C80.8751 12.9717 76.8551 2.73313 71.3346 2.49357C67.2887 2.318 65.1233 4.64474 62.2484 7.50487C56.6881 13.0368 57.7054 27.0945 57.7054 27.0945C57.7054 27.0945 50.9835 20.3331 45.439 18.4386C41.5438 17.1076 39.0438 16.3617 34.99 17.0719C30.8467 17.7978 28.4816 19.1603 25.4495 22.0832C21.0317 26.3419 19.4024 30.5181 19.5435 36.6615C19.677 42.4769 25.4495 50.3287 25.4495 50.3287C25.4495 50.3287 13.1932 47.8321 7.73147 52.151C4.83254 54.4434 3.31472 56.3421 2.27978 59.8958C1.02745 64.1958 1.13915 67.5749 3.6427 71.2851C6.39995 75.3712 15.0004 76.752 15.0004 76.752C15.0004 76.752 8.64009 78.5742 5.45994 81.3077C2.31477 84.011 1.83034 85.9159 0.946506 89.3914L0.916854 89.508L0.889436 89.6158C0.0264343 93.0071 -0.592767 95.4404 0.916854 98.6195C3.42593 103.903 9.16833 103.417 15.0004 103.631C21.5052 103.869 30.9012 98.6195 30.9012 98.6195C30.9012 98.6195 27.4582 107.155 29.084 112.287C30.2766 116.052 31.5575 118.549 34.99 120.487C39.0093 122.757 42.5544 122.291 46.802 120.487C52.1608 118.211 55.8881 108.642 55.8881 108.642C55.8881 108.642 59.3438 119.322 64.52 123.676C67.7425 126.386 69.9082 128.015 74.0605 128.687C78.9049 129.471 82.3662 128.859 86.3268 125.954C90.4297 122.944 92.6871 114.565 92.6871 114.565C92.6871 114.565 96.7736 125.964 102.682 125.954C106.015 125.948 107.775 124.363 110.405 122.309C117.404 116.844 116.765 100.442 116.765 100.442C116.765 100.442 123.007 106.715 128.123 108.642C133.946 110.835 138.684 112.751 144.024 109.553C146.719 107.939 147.691 106.22 149.476 103.631C152.794 98.8164 154.958 95.34 154.473 89.508C154.005 83.8762 147.658 76.752 147.658 76.752C154.755 76.2182 159.47 78.5742 165.831 75.8408C172.191 73.1074 172.601 71.6429 173.1 67.6405C174.008 60.3513 171.953 59.0866 168.557 55.34C165.832 52.3352 159.47 50.3287 159.47 50.3287C159.47 50.3287 170.299 47.3748 172.645 41.6728C174.618 36.8779 174.656 32.3928 171.282 28.4612C168.134 24.7929 164.277 25.2565 159.47 24.8166C152.609 24.1888 142.207 28.4612 142.207 28.4612C142.207 28.4612 145.67 20.1893 144.024 15.2496C142.82 11.6385 141.537 9.1598 138.118 7.50487C134.27 5.64252 131.094 6.62009 127.214 8.41602Z" fill="#FFE177"/>
</svg>
