<svg width="183" height="188" viewBox="0 0 183 188" fill="none" xmlns="http://www.w3.org/2000/svg">
<path d="M50.3262 70.2391C37.5727 83.0894 16.8179 102.277 16.8179 102.277C16.8179 102.277 7.59724 112.45 4.08582 120.33C-0.0362897 129.58 -1.33115 135.684 -0.802966 145.797C-0.284296 155.729 0.750201 162.066 6.4685 170.203C12.0111 178.089 17.1251 181.763 26.1861 185.051C36.7955 188.901 44.01 187.159 55.0868 184.994C68.1168 182.446 74.8919 178.214 86.1506 171.182L86.1573 171.178C103.037 160.635 109.407 150.479 122.782 135.743C134.605 122.716 140.449 114.71 151.094 100.704C159.053 90.2323 164.505 84.9513 170.875 73.4426C176.305 63.6315 181.424 58.2044 182.094 47.0109C182.672 37.3592 181.776 30.9401 176.371 22.9224C171.104 15.1085 165.191 13.117 156.837 8.75737C148.01 4.1511 142.643 0.606512 132.686 0.587494C125.091 0.57299 120.666 2.00647 113.812 5.27884C104.172 9.88135 101.198 16.1903 93.4506 23.5455C75.4494 40.6363 67.8116 52.6209 50.3262 70.2391Z" fill="#FF72A5"/>
</svg>
