<svg width="154" height="113" viewBox="0 0 154 113" fill="none" xmlns="http://www.w3.org/2000/svg">
<path d="M112.592 7.37217C108.448 9.27103 104.952 16.1517 104.952 16.1517C104.952 16.1517 102.876 7.81694 98.9211 4.5787C96.2647 2.40347 94.2296 1.77846 90.8793 0.987087C86.7549 0.0128277 83.9362 -0.631966 80.0229 0.987087C75.179 2.99121 71.5791 11.3628 71.5791 11.3628C71.5791 11.3628 68.0212 2.39414 63.1352 2.18429C59.5544 2.03049 57.6378 4.06865 55.0935 6.57404C50.1723 11.4198 51.0726 23.7339 51.0726 23.7339C51.0726 23.7339 45.1233 17.8112 40.2162 16.1517C36.7686 14.9858 34.556 14.3324 30.9681 14.9545C27.3011 15.5903 25.2079 16.7838 22.5243 19.3442C18.6143 23.0747 17.1722 26.7329 17.2971 32.1144C17.4153 37.2085 22.5243 44.0864 22.5243 44.0864C22.5243 44.0864 11.6768 41.8994 6.8428 45.6827C4.27708 47.6907 2.93372 49.3539 2.01774 52.4668C0.909356 56.2336 1.00821 59.1936 3.224 62.4435C5.66432 66.0228 13.2762 67.2323 13.2762 67.2323C13.2762 67.2323 7.64698 68.8286 4.83236 71.223C2.0487 73.5911 1.61996 75.2597 0.837712 78.3041L0.811469 78.4062L0.787201 78.5006C0.0233951 81.4714 -0.524632 83.6029 0.811469 86.3876C3.03214 91.016 8.1145 90.5904 13.2762 90.7773C19.0333 90.9858 27.3493 86.3876 27.3493 86.3876C27.3493 86.3876 24.3021 93.8642 25.741 98.3596C26.7965 101.658 27.9302 103.845 30.9681 105.543C34.5254 107.531 37.6631 107.123 41.4224 105.543C46.1653 103.549 49.4642 95.1671 49.4642 95.1671C49.4642 95.1671 52.5227 104.523 57.1039 108.336C59.956 110.711 61.8728 112.137 65.5478 112.726C69.8354 113.413 72.8989 112.877 76.4042 110.332C80.0355 107.695 82.0334 100.355 82.0334 100.355C82.0334 100.355 85.6502 110.341 90.8793 110.332C93.8296 110.326 95.3871 108.938 97.7149 107.139C103.909 102.352 103.344 87.9839 103.344 87.9839C103.344 87.9839 108.868 93.4787 113.396 95.1671C118.55 97.0884 122.743 98.7667 127.469 95.9652C129.854 94.5514 130.715 93.0455 132.294 90.7773C135.231 86.5601 137.146 83.5149 136.717 78.4062C136.303 73.4729 130.686 67.2323 130.686 67.2323C136.967 66.7648 141.14 68.8286 146.77 66.4342C152.399 64.0398 152.762 62.757 153.203 59.251C154.007 52.8659 152.188 51.7581 149.182 48.4762C146.771 45.844 141.14 44.0864 141.14 44.0864C141.14 44.0864 150.725 41.4989 152.801 36.5041C154.547 32.3039 154.581 28.3751 151.595 24.9312C148.808 21.7178 145.394 22.1239 141.14 21.7386C135.068 21.1886 125.861 24.9312 125.861 24.9312C125.861 24.9312 128.927 17.6852 127.469 13.3582C126.404 10.195 125.269 8.0237 122.242 6.57404C118.836 4.94268 116.026 5.79899 112.592 7.37217Z" fill="#61CAFF"/>
</svg>
