<svg width="194" height="147" viewBox="0 0 194 147" fill="none" xmlns="http://www.w3.org/2000/svg">
<path d="M64.485 41.046C50.0402 48.9576 26.8768 60.2695 26.8768 60.2695C26.8768 60.2695 16.2574 66.789 11.4143 72.9035C5.72887 80.0814 3.30512 85.2353 1.78002 94.5586C0.282376 103.714 -0.0178686 109.763 3.68673 118.815C7.27747 127.589 11.3093 132.418 19.0952 138.055C28.2115 144.655 35.2804 145.19 46.0319 146.473C58.6794 147.983 65.8355 146.132 77.7274 143.057L77.7344 143.055C95.5629 138.444 103.523 131.105 118.923 121.665C132.536 113.321 139.578 107.776 152.289 98.1991C161.793 91.0383 167.926 87.8486 176.155 79.2823C183.171 71.9795 189.022 68.5597 191.879 58.6085C194.343 50.028 194.788 43.946 191.353 35.0936C188.004 26.4661 182.892 22.9275 175.978 16.5267C168.674 9.76372 164.38 4.9772 155.108 2.04179C148.035 -0.197448 143.626 -0.19488 136.588 0.762826C126.689 2.10983 122.66 6.95755 113.975 11.3549C93.7955 21.5728 84.2893 30.199 64.485 41.046Z" fill="#FF72A5"/>
</svg>
