<svg width="775" height="404" viewBox="0 0 775 404" fill="none" xmlns="http://www.w3.org/2000/svg">
<path d="M566.616 26.3571C545.761 33.146 528.17 57.7458 528.17 57.7458C528.17 57.7458 517.719 27.9473 497.817 16.3699C484.449 8.59295 474.207 6.3584 457.347 3.52905C436.591 0.0458617 422.406 -2.25942 402.713 3.52905C378.336 10.6942 360.219 40.6247 360.219 40.6247C360.219 40.6247 342.314 8.55958 317.726 7.80932C299.706 7.25947 290.061 14.5463 277.256 23.5036C252.49 40.8283 257.021 84.8541 257.021 84.8541C257.021 84.8541 227.082 63.6789 202.387 57.7458C185.037 53.5774 173.902 51.2414 155.846 53.4655C137.392 55.7387 126.858 60.0058 113.353 69.1598C93.6758 82.497 86.4187 95.5761 87.0471 114.816C87.642 133.029 113.353 157.619 113.353 157.619C113.353 157.619 58.7629 149.8 34.4362 163.326C21.5243 170.505 14.7638 176.451 10.1542 187.581C4.5763 201.047 5.07378 211.63 16.2247 223.249C28.5055 236.046 66.8121 240.37 66.8121 240.37C66.8121 240.37 38.4832 246.077 24.3187 254.638C10.31 263.104 8.15238 269.07 4.21576 279.954L4.08369 280.32L3.96156 280.657C0.117733 291.278 -2.64019 298.899 4.08369 308.855C15.2592 325.402 40.8359 323.881 66.8121 324.549C95.7846 325.294 137.635 308.855 137.635 308.855C137.635 308.855 122.3 335.585 129.541 351.657C134.853 363.448 140.558 371.268 155.846 377.339C173.748 384.448 189.538 382.989 208.457 377.339C232.326 370.211 248.927 340.243 248.927 340.243C248.927 340.243 264.319 373.692 287.374 387.326C301.727 395.815 311.373 400.915 329.867 403.021C351.444 405.477 366.861 403.559 384.501 394.46C402.776 385.034 412.83 358.791 412.83 358.791C412.83 358.791 431.032 394.493 457.347 394.46C472.194 394.442 480.033 389.478 491.747 383.046C522.921 365.929 520.076 314.562 520.076 314.562C520.076 314.562 547.875 334.207 570.663 340.243C596.597 347.113 617.702 353.113 641.486 343.097C653.488 338.042 657.819 332.658 665.768 324.549C680.546 309.472 690.185 298.584 688.026 280.32C685.942 262.682 657.674 240.37 657.674 240.37C689.283 238.699 710.285 246.077 738.614 237.517C766.943 228.956 768.767 224.37 770.99 211.835C775.037 189.007 765.883 185.046 750.755 173.313C738.621 163.903 710.285 157.619 710.285 157.619C710.285 157.619 758.517 148.368 768.966 130.51C777.753 115.494 777.924 101.447 762.896 89.1344C748.874 77.6459 731.692 79.0978 710.285 77.7203C679.725 75.754 633.392 89.1344 633.392 89.1344C633.392 89.1344 648.819 63.2285 641.486 47.7585C636.125 36.4492 630.411 28.6865 615.18 23.5036C598.041 17.6712 583.895 20.7327 566.616 26.3571Z" fill="#FFE177"/>
</svg>
