<svg width="220" height="122" viewBox="0 0 220 122" fill="none" xmlns="http://www.w3.org/2000/svg">
<path d="M112.372 15.1729C94.8667 10.5533 67.8721 2.17293 67.8721 2.17293C67.8721 2.17293 54.4521 -0.726093 45.8721 0.172928C35.7999 1.2283 29.8666 3.15875 21.3721 8.67293C13.0306 14.0878 8.05941 18.1525 3.87212 27.1729C-0.186487 35.9162 -0.810604 42.1816 0.872116 51.6729C2.84237 62.786 7.95845 68.1629 15.3721 76.6729C24.0931 86.6836 31.1456 90.4351 42.8652 96.6692L42.8721 96.6729C60.4423 106.019 72.4221 106.458 91.8721 110.673C109.065 114.398 118.92 115.457 136.372 117.673C149.421 119.33 156.72 121.411 169.872 121.173C181.084 120.97 188.343 122.689 198.372 117.673C207.02 113.348 212.131 109.362 216.372 100.673C220.506 92.2047 219.274 86.0877 218.872 76.6729C218.448 66.7255 218.834 60.305 213.872 51.6729C210.087 45.0881 206.633 41.9725 200.372 37.6729C191.566 31.6256 184.615 32.2044 174.372 29.1729C150.57 22.1289 136.373 21.5066 112.372 15.1729Z" fill="#FF72A5"/>
</svg>
